<svg xmlns="http://www.w3.org/2000/svg" viewBox="0 0 1200 680" width="1200" height="680">
<rect width="1200" height="680" fill="#F7F7F8" rx="12"/>
<text x="65" y="38" fill="#1A1A1A" font-family="Tiempos Headline, Georgia, Times New Roman, serif" font-size="22" font-weight="700">Asian Buyer Share of Christie's Global Auction Sales</text>
<text x="65" y="60" fill="#999999" font-family="Neue Haas Grotesk, Helvetica Neue, Helvetica, Arial, sans-serif" font-size="13">Percentage of global auction turnover by region, 2020-2025</text>
<line x1="65" y1="610.0" x2="1060" y2="610.0" stroke="#E5E5E7" stroke-width="0.75"/>
<text x="53" y="614.0" fill="#999999" font-family="Neue Haas Grotesk, Helvetica Neue, Helvetica, Arial, sans-serif" font-size="12" text-anchor="end">0</text>
<line x1="65" y1="506.0" x2="1060" y2="506.0" stroke="#E5E5E7" stroke-width="0.75"/>
<text x="53" y="510.0" fill="#999999" font-family="Neue Haas Grotesk, Helvetica Neue, Helvetica, Arial, sans-serif" font-size="12" text-anchor="end">10</text>
<line x1="65" y1="402.0" x2="1060" y2="402.0" stroke="#E5E5E7" stroke-width="0.75"/>
<text x="53" y="406.0" fill="#999999" font-family="Neue Haas Grotesk, Helvetica Neue, Helvetica, Arial, sans-serif" font-size="12" text-anchor="end">20</text>
<line x1="65" y1="298.0" x2="1060" y2="298.0" stroke="#E5E5E7" stroke-width="0.75"/>
<text x="53" y="302.0" fill="#999999" font-family="Neue Haas Grotesk, Helvetica Neue, Helvetica, Arial, sans-serif" font-size="12" text-anchor="end">30</text>
<line x1="65" y1="194.0" x2="1060" y2="194.0" stroke="#E5E5E7" stroke-width="0.75"/>
<text x="53" y="198.0" fill="#999999" font-family="Neue Haas Grotesk, Helvetica Neue, Helvetica, Arial, sans-serif" font-size="12" text-anchor="end">40</text>
<line x1="65" y1="90.0" x2="1060" y2="90.0" stroke="#E5E5E7" stroke-width="0.75"/>
<text x="53" y="94.0" fill="#999999" font-family="Neue Haas Grotesk, Helvetica Neue, Helvetica, Arial, sans-serif" font-size="12" text-anchor="end">50</text>
<text x="65.0" y="638" fill="#999999" font-family="Neue Haas Grotesk, Helvetica Neue, Helvetica, Arial, sans-serif" font-size="12" text-anchor="middle">2020</text>
<text x="264.0" y="638" fill="#999999" font-family="Neue Haas Grotesk, Helvetica Neue, Helvetica, Arial, sans-serif" font-size="12" text-anchor="middle">2021</text>
<text x="463.0" y="638" fill="#999999" font-family="Neue Haas Grotesk, Helvetica Neue, Helvetica, Arial, sans-serif" font-size="12" text-anchor="middle">2022</text>
<text x="662.0" y="638" fill="#999999" font-family="Neue Haas Grotesk, Helvetica Neue, Helvetica, Arial, sans-serif" font-size="12" text-anchor="middle">2023</text>
<text x="861.0" y="638" fill="#999999" font-family="Neue Haas Grotesk, Helvetica Neue, Helvetica, Arial, sans-serif" font-size="12" text-anchor="middle">2024</text>
<text x="1060.0" y="638" fill="#999999" font-family="Neue Haas Grotesk, Helvetica Neue, Helvetica, Arial, sans-serif" font-size="12" text-anchor="middle">2025</text>
<path d="M 65.0 610.0 L 65.0 266.8 L 264.0 287.6 L 463.0 308.4 L 662.0 318.8 L 861.0 339.6 L 1060.0 370.8 L 1060.0 610.0 Z" fill="#3838E6" opacity="0.06"/>
<path d="M 65.0 266.8 L 264.0 287.6 L 463.0 308.4 L 662.0 318.8 L 861.0 339.6 L 1060.0 370.8" fill="none" stroke="#3838E6" stroke-width="2.5" stroke-linecap="round" stroke-linejoin="round"/>
<circle cx="1060.0" cy="370.8" r="4" fill="#3838E6"/>
<text x="1072.0" y="368.8" fill="#3838E6" font-family="Neue Haas Grotesk, Helvetica Neue, Helvetica, Arial, sans-serif" font-size="12" font-weight="600">Asia-Pacific 23%</text>
<path d="M 65.0 246.0 L 264.0 225.2 L 463.0 204.4 L 662.0 194.0 L 861.0 173.2 L 1060.0 183.6" fill="none" stroke="#9CA3AF" stroke-width="1.8" stroke-linecap="round" stroke-linejoin="round"/>
<circle cx="1060.0" cy="183.6" r="4" fill="#9CA3AF"/>
<text x="1072.0" y="181.6" fill="#9CA3AF" font-family="Neue Haas Grotesk, Helvetica Neue, Helvetica, Arial, sans-serif" font-size="12" font-weight="600">Americas 41%</text>
<text x="65" y="662" fill="#999999" font-family="Neue Haas Grotesk, Helvetica Neue, Helvetica, Arial, sans-serif" font-size="10" opacity="0.65">Source: Christie's annual reports, The Value, Observer</text>
</svg>