<svg xmlns="http://www.w3.org/2000/svg" viewBox="0 0 1200 680" width="1200" height="680">
<rect width="1200" height="680" fill="#F7F7F8" rx="12"/>
<text x="65" y="38" fill="#1A1A1A" font-family="Tiempos Headline, Georgia, Times New Roman, serif" font-size="22" font-weight="700">Art Import Growth: Singapore and Japan</text>
<text x="65" y="60" fill="#999999" font-family="Neue Haas Grotesk, Helvetica Neue, Helvetica, Arial, sans-serif" font-size="13">Annual art import values (), 2020-2024</text>
<line x1="65" y1="610.0" x2="1060" y2="610.0" stroke="#E5E5E7" stroke-width="0.75"/>
<text x="53" y="614.0" fill="#999999" font-family="Neue Haas Grotesk, Helvetica Neue, Helvetica, Arial, sans-serif" font-size="12" text-anchor="end">0</text>
<line x1="65" y1="480.0" x2="1060" y2="480.0" stroke="#E5E5E7" stroke-width="0.75"/>
<text x="53" y="484.0" fill="#999999" font-family="Neue Haas Grotesk, Helvetica Neue, Helvetica, Arial, sans-serif" font-size="12" text-anchor="end">0.5</text>
<line x1="65" y1="350.0" x2="1060" y2="350.0" stroke="#E5E5E7" stroke-width="0.75"/>
<text x="53" y="354.0" fill="#999999" font-family="Neue Haas Grotesk, Helvetica Neue, Helvetica, Arial, sans-serif" font-size="12" text-anchor="end">1</text>
<line x1="65" y1="220.0" x2="1060" y2="220.0" stroke="#E5E5E7" stroke-width="0.75"/>
<text x="53" y="224.0" fill="#999999" font-family="Neue Haas Grotesk, Helvetica Neue, Helvetica, Arial, sans-serif" font-size="12" text-anchor="end">1.5</text>
<line x1="65" y1="90.0" x2="1060" y2="90.0" stroke="#E5E5E7" stroke-width="0.75"/>
<text x="53" y="94.0" fill="#999999" font-family="Neue Haas Grotesk, Helvetica Neue, Helvetica, Arial, sans-serif" font-size="12" text-anchor="end">2</text>
<text x="65.0" y="638" fill="#999999" font-family="Neue Haas Grotesk, Helvetica Neue, Helvetica, Arial, sans-serif" font-size="12" text-anchor="middle">2020</text>
<text x="313.8" y="638" fill="#999999" font-family="Neue Haas Grotesk, Helvetica Neue, Helvetica, Arial, sans-serif" font-size="12" text-anchor="middle">2021</text>
<text x="562.5" y="638" fill="#999999" font-family="Neue Haas Grotesk, Helvetica Neue, Helvetica, Arial, sans-serif" font-size="12" text-anchor="middle">2022</text>
<text x="811.2" y="638" fill="#999999" font-family="Neue Haas Grotesk, Helvetica Neue, Helvetica, Arial, sans-serif" font-size="12" text-anchor="middle">2023</text>
<text x="1060.0" y="638" fill="#999999" font-family="Neue Haas Grotesk, Helvetica Neue, Helvetica, Arial, sans-serif" font-size="12" text-anchor="middle">2024</text>
<path d="M 65.0 610.0 L 65.0 506.0 L 313.8 480.0 L 562.5 428.0 L 811.2 376.0 L 1060.0 168.0 L 1060.0 610.0 Z" fill="#3838E6" opacity="0.06"/>
<path d="M 65.0 506.0 L 313.8 480.0 L 562.5 428.0 L 811.2 376.0 L 1060.0 168.0" fill="none" stroke="#3838E6" stroke-width="2.5" stroke-linecap="round" stroke-linejoin="round"/>
<circle cx="1060.0" cy="168.0" r="4" fill="#3838E6"/>
<text x="1072.0" y="166.0" fill="#3838E6" font-family="Neue Haas Grotesk, Helvetica Neue, Helvetica, Arial, sans-serif" font-size="12" font-weight="600">Singapore $1.7B</text>
<path d="M 65.0 532.0 L 313.8 506.0 L 562.5 480.0 L 811.2 467.0 L 1060.0 324.0" fill="none" stroke="#9CA3AF" stroke-width="1.8" stroke-linecap="round" stroke-linejoin="round"/>
<circle cx="1060.0" cy="324.0" r="4" fill="#9CA3AF"/>
<text x="1072.0" y="322.0" fill="#9CA3AF" font-family="Neue Haas Grotesk, Helvetica Neue, Helvetica, Arial, sans-serif" font-size="12" font-weight="600">Japan $1.1B</text>
<text x="65" y="662" fill="#999999" font-family="Neue Haas Grotesk, Helvetica Neue, Helvetica, Arial, sans-serif" font-size="10" opacity="0.65">Source: Art Basel/UBS Global Art Market Report 2026</text>
</svg>