<svg xmlns="http://www.w3.org/2000/svg" viewBox="0 0 1200 680" width="1200" height="680">
<rect width="1200" height="680" fill="#F7F7F8" rx="12"/>
<text x="65" y="38" fill="#1A1A1A" font-family="Tiempos Headline, Georgia, Times New Roman, serif" font-size="22" font-weight="700">Private Sales Growth: Christie's vs. Sotheby's</text>
<text x="65" y="60" fill="#999999" font-family="Neue Haas Grotesk, Helvetica Neue, Helvetica, Arial, sans-serif" font-size="13">Billions in off-auction transactions, 2019-2025</text>
<!-- Y-axis grid: $0B to $1.6B -->
<line x1="65" y1="520" x2="1060" y2="520" stroke="#E5E5E7" stroke-width="0.75"/>
<text x="53" y="524" fill="#999999" font-family="Neue Haas Grotesk, Helvetica Neue, Helvetica, Arial, sans-serif" font-size="12" text-anchor="end">$0B</text>
<line x1="65" y1="398" x2="1060" y2="398" stroke="#E5E5E7" stroke-width="0.75"/>
<text x="53" y="402" fill="#999999" font-family="Neue Haas Grotesk, Helvetica Neue, Helvetica, Arial, sans-serif" font-size="12" text-anchor="end">$0.5B</text>
<line x1="65" y1="276" x2="1060" y2="276" stroke="#E5E5E7" stroke-width="0.75"/>
<text x="53" y="280" fill="#999999" font-family="Neue Haas Grotesk, Helvetica Neue, Helvetica, Arial, sans-serif" font-size="12" text-anchor="end">$1.0B</text>
<line x1="65" y1="154" x2="1060" y2="154" stroke="#E5E5E7" stroke-width="0.75"/>
<text x="53" y="158" fill="#999999" font-family="Neue Haas Grotesk, Helvetica Neue, Helvetica, Arial, sans-serif" font-size="12" text-anchor="end">$1.5B</text>
<!-- X-axis labels (2019-2025) -->
<text x="65" y="548" fill="#999999" font-family="Neue Haas Grotesk, Helvetica Neue, Helvetica, Arial, sans-serif" font-size="12" text-anchor="middle">2019</text>
<text x="231" y="548" fill="#999999" font-family="Neue Haas Grotesk, Helvetica Neue, Helvetica, Arial, sans-serif" font-size="12" text-anchor="middle">2020</text>
<text x="396" y="548" fill="#999999" font-family="Neue Haas Grotesk, Helvetica Neue, Helvetica, Arial, sans-serif" font-size="12" text-anchor="middle">2021</text>
<text x="562" y="548" fill="#999999" font-family="Neue Haas Grotesk, Helvetica Neue, Helvetica, Arial, sans-serif" font-size="12" text-anchor="middle">2022</text>
<text x="728" y="548" fill="#999999" font-family="Neue Haas Grotesk, Helvetica Neue, Helvetica, Arial, sans-serif" font-size="12" text-anchor="middle">2023</text>
<text x="894" y="548" fill="#999999" font-family="Neue Haas Grotesk, Helvetica Neue, Helvetica, Arial, sans-serif" font-size="12" text-anchor="middle">2024</text>
<text x="1060" y="548" fill="#999999" font-family="Neue Haas Grotesk, Helvetica Neue, Helvetica, Arial, sans-serif" font-size="12" text-anchor="middle">2025</text>
<!-- Area fill for Christie's (subtle) -->
<path d="M 65 325 L 231 300 L 396 252 L 562 228 L 728 203 L 894 179 L 1060 154 L 1060 520 L 65 520 Z" fill="#3838E6" opacity="0.06"/>
<!-- Christie's line: 0.8, 0.9, 1.1, 1.2, 1.3, 1.4, 1.5 -->
<path d="M 65 325 L 231 300 L 396 252 L 562 228 L 728 203 L 894 179 L 1060 154" fill="none" stroke="#3838E6" stroke-width="2.5" stroke-linecap="round" stroke-linejoin="round"/>
<circle cx="1060" cy="154" r="4" fill="#3838E6"/>
<text x="1072" y="152" fill="#3838E6" font-family="Neue Haas Grotesk, Helvetica Neue, Helvetica, Arial, sans-serif" font-size="12" font-weight="600">Christie's $1.5B</text>
<!-- Sotheby's line: 0.6, 0.7, 0.8, 0.9, 1.0, 1.1, 1.2 -->
<path d="M 65 374 L 231 349 L 396 325 L 562 300 L 728 276 L 894 252 L 1060 228" fill="none" stroke="#9CA3AF" stroke-width="1.8" stroke-linecap="round" stroke-linejoin="round"/>
<circle cx="1060" cy="228" r="4" fill="#9CA3AF"/>
<text x="1072" y="226" fill="#9CA3AF" font-family="Neue Haas Grotesk, Helvetica Neue, Helvetica, Arial, sans-serif" font-size="12" font-weight="600">Sotheby's $1.2B</text>
<!-- Source -->
<text x="65" y="662" fill="#999999" font-family="Neue Haas Grotesk, Helvetica Neue, Helvetica, Arial, sans-serif" font-size="10" opacity="0.65">Source: Company reports, The Art Newspaper, 2025</text>
</svg>